<mxfile host="Electron" agent="Mozilla/5.0 (Macintosh; Intel Mac OS X 10_15_7) AppleWebKit/537.36 (KHTML, like Gecko) draw.io/25.0.2 Chrome/128.0.6613.186 Electron/32.2.5 Safari/537.36" version="25.0.2">
  <diagram name="Page-1" id="1WE568LWMVHtuKM3JDja">
    <mxGraphModel dx="-642" dy="705" grid="1" gridSize="10" guides="1" tooltips="1" connect="1" arrows="1" fold="1" page="1" pageScale="1" pageWidth="827" pageHeight="1169" background="none" math="1" shadow="0">
      <root>
        <mxCell id="0" />
        <mxCell id="1" parent="0" />
        <mxCell id="cquxBugVdTG6TD16O6YO-74" value="" style="group" parent="1" vertex="1" connectable="0">
          <mxGeometry x="2320" y="590" width="70" height="80" as="geometry" />
        </mxCell>
        <mxCell id="cquxBugVdTG6TD16O6YO-75" value="" style="rounded=0;whiteSpace=wrap;html=1;fillColor=#f8cecc;strokeColor=#b85450;" parent="cquxBugVdTG6TD16O6YO-74" vertex="1">
          <mxGeometry width="10" height="80" as="geometry" />
        </mxCell>
        <mxCell id="cquxBugVdTG6TD16O6YO-76" value="" style="rounded=0;whiteSpace=wrap;html=1;fillColor=#f8cecc;strokeColor=#b85450;" parent="cquxBugVdTG6TD16O6YO-74" vertex="1">
          <mxGeometry x="10" y="10" width="10" height="60" as="geometry" />
        </mxCell>
        <mxCell id="cquxBugVdTG6TD16O6YO-77" value="" style="rounded=0;whiteSpace=wrap;html=1;fillColor=#f8cecc;strokeColor=#b85450;" parent="cquxBugVdTG6TD16O6YO-74" vertex="1">
          <mxGeometry x="20" y="20" width="10" height="40" as="geometry" />
        </mxCell>
        <mxCell id="cquxBugVdTG6TD16O6YO-78" value="" style="rounded=0;whiteSpace=wrap;html=1;fillColor=#f8cecc;strokeColor=#b85450;" parent="cquxBugVdTG6TD16O6YO-74" vertex="1">
          <mxGeometry x="30" y="30" width="10" height="20" as="geometry" />
        </mxCell>
        <mxCell id="cquxBugVdTG6TD16O6YO-79" value="" style="rounded=0;whiteSpace=wrap;html=1;fillColor=#f8cecc;strokeColor=#b85450;" parent="cquxBugVdTG6TD16O6YO-74" vertex="1">
          <mxGeometry x="40" y="20" width="10" height="40" as="geometry" />
        </mxCell>
        <mxCell id="cquxBugVdTG6TD16O6YO-80" value="" style="rounded=0;whiteSpace=wrap;html=1;fillColor=#f8cecc;strokeColor=#b85450;" parent="cquxBugVdTG6TD16O6YO-74" vertex="1">
          <mxGeometry x="50" y="10" width="10" height="60" as="geometry" />
        </mxCell>
        <mxCell id="cquxBugVdTG6TD16O6YO-81" value="" style="rounded=0;whiteSpace=wrap;html=1;fillColor=#f8cecc;strokeColor=#b85450;" parent="cquxBugVdTG6TD16O6YO-74" vertex="1">
          <mxGeometry x="60" width="10" height="80" as="geometry" />
        </mxCell>
        <mxCell id="PpGFP4gauC4CYrN17JIB-18" style="edgeStyle=orthogonalEdgeStyle;rounded=0;orthogonalLoop=1;jettySize=auto;html=1;entryX=0.5;entryY=0;entryDx=0;entryDy=0;" parent="1" source="cquxBugVdTG6TD16O6YO-95" target="PpGFP4gauC4CYrN17JIB-15" edge="1">
          <mxGeometry relative="1" as="geometry" />
        </mxCell>
        <mxCell id="cquxBugVdTG6TD16O6YO-95" value="$$\hat{\epsilon}_{T}$$" style="text;html=1;align=center;verticalAlign=middle;whiteSpace=wrap;rounded=0;fontSize=18;" parent="1" vertex="1">
          <mxGeometry x="2260" y="615" width="30" height="30" as="geometry" />
        </mxCell>
        <mxCell id="xN7vpNgqIkpbUuNeTXVm-40" style="edgeStyle=orthogonalEdgeStyle;rounded=0;orthogonalLoop=1;jettySize=auto;html=1;entryX=1;entryY=0.75;entryDx=0;entryDy=0;" parent="1" source="cquxBugVdTG6TD16O6YO-96" target="cquxBugVdTG6TD16O6YO-81" edge="1">
          <mxGeometry relative="1" as="geometry">
            <Array as="points">
              <mxPoint x="2419" y="650" />
            </Array>
          </mxGeometry>
        </mxCell>
        <mxCell id="cquxBugVdTG6TD16O6YO-96" value="$$\hat{\mathbf{x}}_{T}$$" style="ellipse;whiteSpace=wrap;html=1;aspect=fixed;fontSize=18;fillColor=default;" parent="1" vertex="1">
          <mxGeometry x="2399.24" y="680" width="40" height="40" as="geometry" />
        </mxCell>
        <mxCell id="cquxBugVdTG6TD16O6YO-98" value="$$f_{\theta} (\mathbf{x}_{T}, T)$$" style="text;html=1;align=center;verticalAlign=middle;whiteSpace=wrap;rounded=0;fontSize=14;" parent="1" vertex="1">
          <mxGeometry x="2310" y="671" width="90" height="30" as="geometry" />
        </mxCell>
        <mxCell id="PpGFP4gauC4CYrN17JIB-6" style="edgeStyle=orthogonalEdgeStyle;rounded=0;orthogonalLoop=1;jettySize=auto;html=1;entryX=1;entryY=0.25;entryDx=0;entryDy=0;" parent="1" source="cquxBugVdTG6TD16O6YO-102" target="cquxBugVdTG6TD16O6YO-81" edge="1">
          <mxGeometry relative="1" as="geometry" />
        </mxCell>
        <mxCell id="cquxBugVdTG6TD16O6YO-102" value="$$T$$" style="text;html=1;align=center;verticalAlign=middle;whiteSpace=wrap;rounded=0;fontSize=14;" parent="1" vertex="1">
          <mxGeometry x="2419.24" y="597" width="20" height="25" as="geometry" />
        </mxCell>
        <mxCell id="JOVcdw9nQPwqHA8ujt-6-2" style="edgeStyle=orthogonalEdgeStyle;rounded=0;orthogonalLoop=1;jettySize=auto;html=1;fillColor=#dae8fc;strokeColor=#6c8ebf;strokeWidth=2;entryX=0;entryY=0.5;entryDx=0;entryDy=0;" parent="1" source="cquxBugVdTG6TD16O6YO-103" target="cquxBugVdTG6TD16O6YO-111" edge="1">
          <mxGeometry relative="1" as="geometry">
            <mxPoint x="2190" y="590" as="targetPoint" />
          </mxGeometry>
        </mxCell>
        <mxCell id="cquxBugVdTG6TD16O6YO-103" value="$$\mathbf{x}_{0}$$" style="ellipse;whiteSpace=wrap;html=1;aspect=fixed;fontSize=18;fillColor=default;" parent="1" vertex="1">
          <mxGeometry x="1879" y="559" width="40" height="40" as="geometry" />
        </mxCell>
        <mxCell id="cquxBugVdTG6TD16O6YO-106" value="$$\mathbf{x}_{T}$$" style="ellipse;whiteSpace=wrap;html=1;aspect=fixed;fontSize=18;fillColor=default;" parent="1" vertex="1">
          <mxGeometry x="2400" y="559" width="40" height="40" as="geometry" />
        </mxCell>
        <mxCell id="cquxBugVdTG6TD16O6YO-108" style="edgeStyle=orthogonalEdgeStyle;rounded=0;orthogonalLoop=1;jettySize=auto;html=1;fillColor=#f8cecc;strokeColor=#b85450;strokeWidth=2;exitX=0;exitY=0.5;exitDx=0;exitDy=0;" parent="1" source="cquxBugVdTG6TD16O6YO-96" target="cquxBugVdTG6TD16O6YO-131" edge="1">
          <mxGeometry relative="1" as="geometry">
            <Array as="points" />
            <mxPoint x="2365.76" y="701" as="sourcePoint" />
          </mxGeometry>
        </mxCell>
        <mxCell id="cquxBugVdTG6TD16O6YO-111" value="$$\mathbf{x}_{T-1}$$" style="ellipse;whiteSpace=wrap;html=1;aspect=fixed;fontSize=14;fillColor=default;" parent="1" vertex="1">
          <mxGeometry x="2199.62" y="559" width="40" height="40" as="geometry" />
        </mxCell>
        <mxCell id="cquxBugVdTG6TD16O6YO-130" value="$$\mathbf{x}_{0}$$" style="ellipse;whiteSpace=wrap;html=1;aspect=fixed;fontSize=18;fillColor=default;" parent="1" vertex="1">
          <mxGeometry x="1880" y="680" width="40" height="40" as="geometry" />
        </mxCell>
        <mxCell id="JOVcdw9nQPwqHA8ujt-6-1" style="edgeStyle=orthogonalEdgeStyle;rounded=0;orthogonalLoop=1;jettySize=auto;html=1;fillColor=#f8cecc;strokeColor=#b85450;strokeWidth=2;entryX=1;entryY=0.5;entryDx=0;entryDy=0;" parent="1" source="xN7vpNgqIkpbUuNeTXVm-28" target="cquxBugVdTG6TD16O6YO-130" edge="1">
          <mxGeometry relative="1" as="geometry">
            <mxPoint x="1940" y="699.5" as="targetPoint" />
          </mxGeometry>
        </mxCell>
        <mxCell id="cquxBugVdTG6TD16O6YO-131" value="$$\hat{\mathbf{x}}_{T-1}$$" style="ellipse;whiteSpace=wrap;html=1;aspect=fixed;fontSize=14;fillColor=default;" parent="1" vertex="1">
          <mxGeometry x="2199.62" y="680" width="40" height="40" as="geometry" />
        </mxCell>
        <mxCell id="cquxBugVdTG6TD16O6YO-135" value="&lt;span style=&quot;font-size: 14px;&quot;&gt;$$...$$&lt;/span&gt;" style="rounded=0;whiteSpace=wrap;html=1;spacingTop=-6;strokeColor=none;" parent="1" vertex="1">
          <mxGeometry x="2124.76" y="565.5" width="30" height="29" as="geometry" />
        </mxCell>
        <mxCell id="cquxBugVdTG6TD16O6YO-147" value="" style="edgeStyle=orthogonalEdgeStyle;rounded=0;orthogonalLoop=1;jettySize=auto;html=1;fillColor=#dae8fc;strokeColor=#6c8ebf;strokeWidth=2;exitX=1;exitY=0.5;exitDx=0;exitDy=0;" parent="1" source="cquxBugVdTG6TD16O6YO-111" target="cquxBugVdTG6TD16O6YO-106" edge="1">
          <mxGeometry relative="1" as="geometry">
            <mxPoint x="2310" y="560" as="sourcePoint" />
            <mxPoint x="2400" y="580" as="targetPoint" />
          </mxGeometry>
        </mxCell>
        <mxCell id="PpGFP4gauC4CYrN17JIB-7" style="edgeStyle=orthogonalEdgeStyle;rounded=0;orthogonalLoop=1;jettySize=auto;html=1;" parent="1" source="cquxBugVdTG6TD16O6YO-75" target="cquxBugVdTG6TD16O6YO-95" edge="1">
          <mxGeometry relative="1" as="geometry" />
        </mxCell>
        <mxCell id="PpGFP4gauC4CYrN17JIB-15" value="-" style="ellipse;whiteSpace=wrap;html=1;spacingTop=-2;" parent="1" vertex="1">
          <mxGeometry x="2265" y="690" width="20" height="20" as="geometry" />
        </mxCell>
        <mxCell id="PpGFP4gauC4CYrN17JIB-19" value="$${\epsilon}_{T}$$" style="text;html=1;align=center;verticalAlign=middle;whiteSpace=wrap;rounded=0;fontSize=18;" parent="1" vertex="1">
          <mxGeometry x="2345" y="540" width="30" height="20" as="geometry" />
        </mxCell>
        <mxCell id="PpGFP4gauC4CYrN17JIB-20" value="+" style="ellipse;whiteSpace=wrap;html=1;spacingTop=-2;" parent="1" vertex="1">
          <mxGeometry x="2350" y="569" width="20" height="20" as="geometry" />
        </mxCell>
        <mxCell id="JOVcdw9nQPwqHA8ujt-6-65" style="edgeStyle=orthogonalEdgeStyle;rounded=0;orthogonalLoop=1;jettySize=auto;html=1;exitX=0;exitY=1;exitDx=0;exitDy=0;entryX=0;entryY=0;entryDx=0;entryDy=0;" parent="1" source="JOVcdw9nQPwqHA8ujt-6-66" target="JOVcdw9nQPwqHA8ujt-6-90" edge="1">
          <mxGeometry relative="1" as="geometry" />
        </mxCell>
        <mxCell id="JOVcdw9nQPwqHA8ujt-6-66" value="$$\mathbf{x}_{T}$$" style="ellipse;whiteSpace=wrap;html=1;aspect=fixed;fontSize=18;fillColor=default;" parent="1" vertex="1">
          <mxGeometry x="1880" y="1240" width="40" height="40" as="geometry" />
        </mxCell>
        <mxCell id="JOVcdw9nQPwqHA8ujt-6-67" value="" style="edgeStyle=orthogonalEdgeStyle;rounded=0;orthogonalLoop=1;jettySize=auto;html=1;entryX=1;entryY=0.5;entryDx=0;entryDy=0;strokeWidth=2;fillColor=#dae8fc;strokeColor=#6c8ebf;" parent="1" source="JOVcdw9nQPwqHA8ujt-6-83" target="JOVcdw9nQPwqHA8ujt-6-66" edge="1">
          <mxGeometry relative="1" as="geometry" />
        </mxCell>
        <mxCell id="JOVcdw9nQPwqHA8ujt-6-68" value="$$\mathbf{x}_{t}$$" style="ellipse;whiteSpace=wrap;html=1;aspect=fixed;fontSize=18;fillColor=default;" parent="1" vertex="1">
          <mxGeometry x="2160" y="1240" width="40" height="40" as="geometry" />
        </mxCell>
        <mxCell id="JOVcdw9nQPwqHA8ujt-6-69" style="edgeStyle=orthogonalEdgeStyle;rounded=0;orthogonalLoop=1;jettySize=auto;html=1;entryX=1;entryY=0.5;entryDx=0;entryDy=0;strokeWidth=2;fillColor=#dae8fc;strokeColor=#6c8ebf;" parent="1" source="JOVcdw9nQPwqHA8ujt-6-70" target="JOVcdw9nQPwqHA8ujt-6-68" edge="1">
          <mxGeometry relative="1" as="geometry" />
        </mxCell>
        <mxCell id="JOVcdw9nQPwqHA8ujt-6-70" value="$$\mathbf{x}_{t-1}$$" style="ellipse;whiteSpace=wrap;html=1;aspect=fixed;fontSize=16;fillColor=default;" parent="1" vertex="1">
          <mxGeometry x="2259" y="1240" width="40" height="40" as="geometry" />
        </mxCell>
        <mxCell id="JOVcdw9nQPwqHA8ujt-6-71" value="&lt;span style=&quot;text-wrap: wrap; background-color: rgb(251, 251, 251);&quot;&gt;&lt;font style=&quot;font-size: 14px;&quot;&gt;$$...$$&lt;/font&gt;&lt;/span&gt;" style="edgeStyle=orthogonalEdgeStyle;rounded=0;orthogonalLoop=1;jettySize=auto;html=1;entryX=1;entryY=0.5;entryDx=0;entryDy=0;strokeWidth=2;fillColor=#dae8fc;strokeColor=#6c8ebf;" parent="1" source="JOVcdw9nQPwqHA8ujt-6-75" target="JOVcdw9nQPwqHA8ujt-6-70" edge="1">
          <mxGeometry relative="1" as="geometry" />
        </mxCell>
        <mxCell id="JOVcdw9nQPwqHA8ujt-6-72" value="" style="edgeStyle=orthogonalEdgeStyle;rounded=0;orthogonalLoop=1;jettySize=auto;html=1;" parent="1" source="JOVcdw9nQPwqHA8ujt-6-73" target="JOVcdw9nQPwqHA8ujt-6-75" edge="1">
          <mxGeometry relative="1" as="geometry" />
        </mxCell>
        <mxCell id="JOVcdw9nQPwqHA8ujt-6-73" value="$$\mathbf{x}_{0}$$" style="ellipse;whiteSpace=wrap;html=1;aspect=fixed;fontSize=18;fillColor=default;" parent="1" vertex="1">
          <mxGeometry x="2600" y="1240" width="40" height="40" as="geometry" />
        </mxCell>
        <mxCell id="JOVcdw9nQPwqHA8ujt-6-74" value="" style="edgeStyle=orthogonalEdgeStyle;rounded=0;orthogonalLoop=1;jettySize=auto;html=1;entryX=1;entryY=0.5;entryDx=0;entryDy=0;strokeWidth=2;fillColor=#dae8fc;strokeColor=#6c8ebf;" parent="1" source="JOVcdw9nQPwqHA8ujt-6-88" target="JOVcdw9nQPwqHA8ujt-6-75" edge="1">
          <mxGeometry relative="1" as="geometry">
            <mxPoint x="2540" y="1260" as="sourcePoint" />
            <mxPoint x="2339" y="1260" as="targetPoint" />
          </mxGeometry>
        </mxCell>
        <mxCell id="JOVcdw9nQPwqHA8ujt-6-75" value="$$\mathbf{x}_{1}$$" style="ellipse;whiteSpace=wrap;html=1;aspect=fixed;fontSize=18;fillColor=default;" parent="1" vertex="1">
          <mxGeometry x="2440" y="1240" width="40" height="40" as="geometry" />
        </mxCell>
        <mxCell id="JOVcdw9nQPwqHA8ujt-6-76" style="edgeStyle=orthogonalEdgeStyle;rounded=0;orthogonalLoop=1;jettySize=auto;html=1;entryX=0.5;entryY=0;entryDx=0;entryDy=0;" parent="1" source="JOVcdw9nQPwqHA8ujt-6-77" target="JOVcdw9nQPwqHA8ujt-6-88" edge="1">
          <mxGeometry relative="1" as="geometry" />
        </mxCell>
        <mxCell id="JOVcdw9nQPwqHA8ujt-6-77" value="$$\epsilon_{1}$$" style="text;html=1;align=center;verticalAlign=middle;whiteSpace=wrap;rounded=0;fontSize=18;rotation=0;spacingTop=0;spacingRight=0;" parent="1" vertex="1">
          <mxGeometry x="2500" y="1210" width="20" height="20" as="geometry" />
        </mxCell>
        <mxCell id="JOVcdw9nQPwqHA8ujt-6-78" style="edgeStyle=orthogonalEdgeStyle;rounded=0;orthogonalLoop=1;jettySize=auto;html=1;entryX=0.5;entryY=0;entryDx=0;entryDy=0;" parent="1" source="JOVcdw9nQPwqHA8ujt-6-79" target="JOVcdw9nQPwqHA8ujt-6-83" edge="1">
          <mxGeometry relative="1" as="geometry" />
        </mxCell>
        <mxCell id="JOVcdw9nQPwqHA8ujt-6-79" value="$$\epsilon_{T}$$" style="text;html=1;align=center;verticalAlign=middle;whiteSpace=wrap;rounded=0;fontSize=18;rotation=0;spacingTop=0;spacingRight=8;" parent="1" vertex="1">
          <mxGeometry x="1935" y="1210" width="30" height="20" as="geometry" />
        </mxCell>
        <mxCell id="JOVcdw9nQPwqHA8ujt-6-80" value="&lt;span style=&quot;text-wrap: wrap; background-color: rgb(251, 251, 251);&quot;&gt;&lt;font style=&quot;font-size: 14px;&quot;&gt;$$...$$&lt;/font&gt;&lt;/span&gt;" style="edgeStyle=orthogonalEdgeStyle;rounded=0;orthogonalLoop=1;jettySize=auto;html=1;entryX=1;entryY=0.5;entryDx=0;entryDy=0;strokeWidth=2;fillColor=#dae8fc;strokeColor=#6c8ebf;" parent="1" source="JOVcdw9nQPwqHA8ujt-6-68" target="JOVcdw9nQPwqHA8ujt-6-81" edge="1">
          <mxGeometry relative="1" as="geometry">
            <mxPoint x="2120" y="1260" as="sourcePoint" />
            <mxPoint x="1920" y="1260" as="targetPoint" />
          </mxGeometry>
        </mxCell>
        <mxCell id="JOVcdw9nQPwqHA8ujt-6-81" value="$$\mathbf{x}_{T-1}$$" style="ellipse;whiteSpace=wrap;html=1;aspect=fixed;fontSize=14;fillColor=default;" parent="1" vertex="1">
          <mxGeometry x="1980" y="1240" width="40" height="40" as="geometry" />
        </mxCell>
        <mxCell id="JOVcdw9nQPwqHA8ujt-6-82" value="" style="edgeStyle=orthogonalEdgeStyle;rounded=0;orthogonalLoop=1;jettySize=auto;html=1;entryX=1;entryY=0.5;entryDx=0;entryDy=0;strokeWidth=2;fillColor=#dae8fc;strokeColor=#6c8ebf;" parent="1" source="JOVcdw9nQPwqHA8ujt-6-81" target="JOVcdw9nQPwqHA8ujt-6-83" edge="1">
          <mxGeometry relative="1" as="geometry">
            <mxPoint x="1980" y="1260" as="sourcePoint" />
            <mxPoint x="1920" y="1260" as="targetPoint" />
          </mxGeometry>
        </mxCell>
        <mxCell id="JOVcdw9nQPwqHA8ujt-6-83" value="+" style="ellipse;whiteSpace=wrap;html=1;spacingTop=-2;" parent="1" vertex="1">
          <mxGeometry x="1940" y="1250" width="20" height="20" as="geometry" />
        </mxCell>
        <mxCell id="JOVcdw9nQPwqHA8ujt-6-84" value="+" style="ellipse;whiteSpace=wrap;html=1;spacingTop=-2;" parent="1" vertex="1">
          <mxGeometry x="2219.62" y="1250" width="20" height="20" as="geometry" />
        </mxCell>
        <mxCell id="JOVcdw9nQPwqHA8ujt-6-85" style="edgeStyle=orthogonalEdgeStyle;rounded=0;orthogonalLoop=1;jettySize=auto;html=1;entryX=0.5;entryY=0;entryDx=0;entryDy=0;exitX=0.5;exitY=1;exitDx=0;exitDy=0;" parent="1" source="JOVcdw9nQPwqHA8ujt-6-86" target="JOVcdw9nQPwqHA8ujt-6-84" edge="1">
          <mxGeometry relative="1" as="geometry">
            <mxPoint x="2229.62" y="1300" as="sourcePoint" />
          </mxGeometry>
        </mxCell>
        <mxCell id="JOVcdw9nQPwqHA8ujt-6-86" value="$$\epsilon_{t}$$" style="text;html=1;align=center;verticalAlign=middle;whiteSpace=wrap;rounded=0;fontSize=18;rotation=0;spacingTop=0;spacingRight=0;" parent="1" vertex="1">
          <mxGeometry x="2214.74" y="1210" width="29.75" height="20" as="geometry" />
        </mxCell>
        <mxCell id="JOVcdw9nQPwqHA8ujt-6-87" value="" style="edgeStyle=orthogonalEdgeStyle;rounded=0;orthogonalLoop=1;jettySize=auto;html=1;entryX=1;entryY=0.5;entryDx=0;entryDy=0;strokeWidth=2;fillColor=#dae8fc;strokeColor=#6c8ebf;" parent="1" source="JOVcdw9nQPwqHA8ujt-6-73" target="JOVcdw9nQPwqHA8ujt-6-88" edge="1">
          <mxGeometry relative="1" as="geometry">
            <mxPoint x="2540" y="1260" as="sourcePoint" />
            <mxPoint x="2480" y="1260" as="targetPoint" />
          </mxGeometry>
        </mxCell>
        <mxCell id="JOVcdw9nQPwqHA8ujt-6-88" value="+" style="ellipse;whiteSpace=wrap;html=1;spacingTop=-2;" parent="1" vertex="1">
          <mxGeometry x="2500" y="1250" width="20" height="20" as="geometry" />
        </mxCell>
        <mxCell id="JOVcdw9nQPwqHA8ujt-6-89" style="edgeStyle=orthogonalEdgeStyle;rounded=0;orthogonalLoop=1;jettySize=auto;html=1;entryX=0;entryY=0.75;entryDx=0;entryDy=0;" parent="1" source="JOVcdw9nQPwqHA8ujt-6-90" target="JOVcdw9nQPwqHA8ujt-6-94" edge="1">
          <mxGeometry relative="1" as="geometry" />
        </mxCell>
        <mxCell id="JOVcdw9nQPwqHA8ujt-6-90" value="$$\mathbf{x}_{T}$$" style="ellipse;whiteSpace=wrap;html=1;aspect=fixed;fontSize=18;fillColor=default;" parent="1" vertex="1">
          <mxGeometry x="1880" y="1330" width="40" height="40" as="geometry" />
        </mxCell>
        <mxCell id="JOVcdw9nQPwqHA8ujt-6-91" style="edgeStyle=orthogonalEdgeStyle;rounded=0;orthogonalLoop=1;jettySize=auto;html=1;entryX=0;entryY=0.25;entryDx=0;entryDy=0;" parent="1" source="JOVcdw9nQPwqHA8ujt-6-92" target="JOVcdw9nQPwqHA8ujt-6-94" edge="1">
          <mxGeometry relative="1" as="geometry" />
        </mxCell>
        <mxCell id="JOVcdw9nQPwqHA8ujt-6-92" value="$$T$$" style="text;html=1;align=center;verticalAlign=middle;whiteSpace=wrap;rounded=0;fontSize=14;" parent="1" vertex="1">
          <mxGeometry x="1910" y="1295" width="20" height="30" as="geometry" />
        </mxCell>
        <mxCell id="JOVcdw9nQPwqHA8ujt-6-93" value="&#xa;" style="group" parent="1" vertex="1" connectable="0">
          <mxGeometry x="1960" y="1290" width="70" height="80" as="geometry" />
        </mxCell>
        <mxCell id="JOVcdw9nQPwqHA8ujt-6-94" value="" style="rounded=0;whiteSpace=wrap;html=1;fillColor=#f8cecc;strokeColor=#b85450;" parent="JOVcdw9nQPwqHA8ujt-6-93" vertex="1">
          <mxGeometry width="10" height="80" as="geometry" />
        </mxCell>
        <mxCell id="JOVcdw9nQPwqHA8ujt-6-95" value="" style="rounded=0;whiteSpace=wrap;html=1;fillColor=#f8cecc;strokeColor=#b85450;" parent="JOVcdw9nQPwqHA8ujt-6-93" vertex="1">
          <mxGeometry x="10" y="10" width="10" height="60" as="geometry" />
        </mxCell>
        <mxCell id="JOVcdw9nQPwqHA8ujt-6-96" value="" style="rounded=0;whiteSpace=wrap;html=1;fillColor=#f8cecc;strokeColor=#b85450;" parent="JOVcdw9nQPwqHA8ujt-6-93" vertex="1">
          <mxGeometry x="20" y="20" width="10" height="40" as="geometry" />
        </mxCell>
        <mxCell id="JOVcdw9nQPwqHA8ujt-6-97" value="" style="rounded=0;whiteSpace=wrap;html=1;fillColor=#f8cecc;strokeColor=#b85450;" parent="JOVcdw9nQPwqHA8ujt-6-93" vertex="1">
          <mxGeometry x="30" y="30" width="10" height="20" as="geometry" />
        </mxCell>
        <mxCell id="JOVcdw9nQPwqHA8ujt-6-98" value="" style="rounded=0;whiteSpace=wrap;html=1;fillColor=#f8cecc;strokeColor=#b85450;" parent="JOVcdw9nQPwqHA8ujt-6-93" vertex="1">
          <mxGeometry x="40" y="20" width="10" height="40" as="geometry" />
        </mxCell>
        <mxCell id="JOVcdw9nQPwqHA8ujt-6-99" value="" style="rounded=0;whiteSpace=wrap;html=1;fillColor=#f8cecc;strokeColor=#b85450;" parent="JOVcdw9nQPwqHA8ujt-6-93" vertex="1">
          <mxGeometry x="50" y="10" width="10" height="60" as="geometry" />
        </mxCell>
        <mxCell id="JOVcdw9nQPwqHA8ujt-6-100" value="" style="rounded=0;whiteSpace=wrap;html=1;fillColor=#f8cecc;strokeColor=#b85450;" parent="JOVcdw9nQPwqHA8ujt-6-93" vertex="1">
          <mxGeometry x="60" width="10" height="80" as="geometry" />
        </mxCell>
        <mxCell id="JOVcdw9nQPwqHA8ujt-6-101" style="edgeStyle=orthogonalEdgeStyle;rounded=0;orthogonalLoop=1;jettySize=auto;html=1;entryX=1;entryY=0.5;entryDx=0;entryDy=0;exitX=0.5;exitY=1;exitDx=0;exitDy=0;strokeWidth=2;fillColor=#dae8fc;strokeColor=#6c8ebf;" parent="1" source="JOVcdw9nQPwqHA8ujt-6-102" target="JOVcdw9nQPwqHA8ujt-6-108" edge="1">
          <mxGeometry relative="1" as="geometry">
            <Array as="points">
              <mxPoint x="2620" y="1370" />
            </Array>
          </mxGeometry>
        </mxCell>
        <mxCell id="JOVcdw9nQPwqHA8ujt-6-102" value="$$\hat{\mathbf{x}}^{(T)}_{0}$$" style="ellipse;whiteSpace=wrap;html=1;aspect=fixed;fontSize=16;fillColor=default;" parent="1" vertex="1">
          <mxGeometry x="2600" y="1310" width="40" height="40" as="geometry" />
        </mxCell>
        <mxCell id="JOVcdw9nQPwqHA8ujt-6-103" value="" style="edgeStyle=orthogonalEdgeStyle;rounded=0;orthogonalLoop=1;jettySize=auto;html=1;entryX=1;entryY=0.5;entryDx=0;entryDy=0;strokeWidth=2;fillColor=#dae8fc;strokeColor=#6c8ebf;" parent="1" source="JOVcdw9nQPwqHA8ujt-6-108" target="JOVcdw9nQPwqHA8ujt-6-105" edge="1">
          <mxGeometry relative="1" as="geometry">
            <mxPoint x="2600" y="1270" as="sourcePoint" />
            <mxPoint x="2399" y="1270" as="targetPoint" />
          </mxGeometry>
        </mxCell>
        <mxCell id="JOVcdw9nQPwqHA8ujt-6-104" value="$$\cdots$$" style="edgeStyle=orthogonalEdgeStyle;rounded=0;orthogonalLoop=1;jettySize=auto;html=1;entryX=1;entryY=0.5;entryDx=0;entryDy=0;fontSize=14;strokeWidth=2;fillColor=#dae8fc;strokeColor=#6c8ebf;" parent="1" source="JOVcdw9nQPwqHA8ujt-6-105" target="JOVcdw9nQPwqHA8ujt-6-110" edge="1">
          <mxGeometry relative="1" as="geometry" />
        </mxCell>
        <mxCell id="JOVcdw9nQPwqHA8ujt-6-105" value="$$\hat{\mathbf{x}}_{1}$$" style="ellipse;whiteSpace=wrap;html=1;aspect=fixed;fontSize=18;fillColor=default;" parent="1" vertex="1">
          <mxGeometry x="2510" y="1350" width="40" height="40" as="geometry" />
        </mxCell>
        <mxCell id="JOVcdw9nQPwqHA8ujt-6-106" style="edgeStyle=orthogonalEdgeStyle;rounded=0;orthogonalLoop=1;jettySize=auto;html=1;entryX=0.5;entryY=1;entryDx=0;entryDy=0;" parent="1" source="JOVcdw9nQPwqHA8ujt-6-107" target="JOVcdw9nQPwqHA8ujt-6-108" edge="1">
          <mxGeometry relative="1" as="geometry" />
        </mxCell>
        <mxCell id="JOVcdw9nQPwqHA8ujt-6-107" value="$$\epsilon_{1}$$" style="text;html=1;align=center;verticalAlign=middle;whiteSpace=wrap;rounded=0;fontSize=18;rotation=0;spacingTop=0;spacingRight=0;" parent="1" vertex="1">
          <mxGeometry x="2570" y="1400" width="20" height="20" as="geometry" />
        </mxCell>
        <mxCell id="JOVcdw9nQPwqHA8ujt-6-108" value="+" style="ellipse;whiteSpace=wrap;html=1;spacingTop=-2;" parent="1" vertex="1">
          <mxGeometry x="2570" y="1360" width="20" height="20" as="geometry" />
        </mxCell>
        <mxCell id="JOVcdw9nQPwqHA8ujt-6-109" style="edgeStyle=orthogonalEdgeStyle;rounded=0;orthogonalLoop=1;jettySize=auto;html=1;entryX=0;entryY=0.5;entryDx=0;entryDy=0;" parent="1" source="JOVcdw9nQPwqHA8ujt-6-110" target="JOVcdw9nQPwqHA8ujt-6-125" edge="1">
          <mxGeometry relative="1" as="geometry">
            <Array as="points">
              <mxPoint x="2060" y="1410" />
            </Array>
          </mxGeometry>
        </mxCell>
        <mxCell id="JOVcdw9nQPwqHA8ujt-6-110" value="$$\hat{\mathbf{x}}_{T-1}$$" style="ellipse;whiteSpace=wrap;html=1;aspect=fixed;fontSize=14;fillColor=default;" parent="1" vertex="1">
          <mxGeometry x="2040" y="1350" width="40" height="40" as="geometry" />
        </mxCell>
        <mxCell id="JOVcdw9nQPwqHA8ujt-6-111" style="edgeStyle=orthogonalEdgeStyle;rounded=0;orthogonalLoop=1;jettySize=auto;html=1;entryX=0;entryY=0.5;entryDx=0;entryDy=0;" parent="1" source="JOVcdw9nQPwqHA8ujt-6-100" target="JOVcdw9nQPwqHA8ujt-6-102" edge="1">
          <mxGeometry relative="1" as="geometry" />
        </mxCell>
        <mxCell id="JOVcdw9nQPwqHA8ujt-6-112" style="edgeStyle=orthogonalEdgeStyle;rounded=0;orthogonalLoop=1;jettySize=auto;html=1;entryX=0;entryY=0.75;entryDx=0;entryDy=0;" parent="1" source="JOVcdw9nQPwqHA8ujt-6-113" target="JOVcdw9nQPwqHA8ujt-6-117" edge="1">
          <mxGeometry relative="1" as="geometry" />
        </mxCell>
        <mxCell id="JOVcdw9nQPwqHA8ujt-6-113" value="$$\hat{\mathbf{x}}_{t}$$" style="ellipse;whiteSpace=wrap;html=1;aspect=fixed;fontSize=18;fillColor=default;" parent="1" vertex="1">
          <mxGeometry x="2160" y="1430" width="40" height="40" as="geometry" />
        </mxCell>
        <mxCell id="JOVcdw9nQPwqHA8ujt-6-114" style="edgeStyle=orthogonalEdgeStyle;rounded=0;orthogonalLoop=1;jettySize=auto;html=1;entryX=0;entryY=0.25;entryDx=0;entryDy=0;" parent="1" source="JOVcdw9nQPwqHA8ujt-6-115" target="JOVcdw9nQPwqHA8ujt-6-117" edge="1">
          <mxGeometry relative="1" as="geometry" />
        </mxCell>
        <mxCell id="JOVcdw9nQPwqHA8ujt-6-115" value="$$t$$" style="text;html=1;align=center;verticalAlign=middle;whiteSpace=wrap;rounded=0;fontSize=14;" parent="1" vertex="1">
          <mxGeometry x="2170" y="1395" width="20" height="30" as="geometry" />
        </mxCell>
        <mxCell id="JOVcdw9nQPwqHA8ujt-6-116" value="&#xa;" style="group" parent="1" vertex="1" connectable="0">
          <mxGeometry x="2220" y="1390" width="70" height="80" as="geometry" />
        </mxCell>
        <mxCell id="JOVcdw9nQPwqHA8ujt-6-117" value="" style="rounded=0;whiteSpace=wrap;html=1;fillColor=#f8cecc;strokeColor=#b85450;" parent="JOVcdw9nQPwqHA8ujt-6-116" vertex="1">
          <mxGeometry width="10" height="80" as="geometry" />
        </mxCell>
        <mxCell id="JOVcdw9nQPwqHA8ujt-6-118" value="" style="rounded=0;whiteSpace=wrap;html=1;fillColor=#f8cecc;strokeColor=#b85450;" parent="JOVcdw9nQPwqHA8ujt-6-116" vertex="1">
          <mxGeometry x="10" y="10" width="10" height="60" as="geometry" />
        </mxCell>
        <mxCell id="JOVcdw9nQPwqHA8ujt-6-119" value="" style="rounded=0;whiteSpace=wrap;html=1;fillColor=#f8cecc;strokeColor=#b85450;" parent="JOVcdw9nQPwqHA8ujt-6-116" vertex="1">
          <mxGeometry x="20" y="20" width="10" height="40" as="geometry" />
        </mxCell>
        <mxCell id="JOVcdw9nQPwqHA8ujt-6-120" value="" style="rounded=0;whiteSpace=wrap;html=1;fillColor=#f8cecc;strokeColor=#b85450;" parent="JOVcdw9nQPwqHA8ujt-6-116" vertex="1">
          <mxGeometry x="30" y="30" width="10" height="20" as="geometry" />
        </mxCell>
        <mxCell id="JOVcdw9nQPwqHA8ujt-6-121" value="" style="rounded=0;whiteSpace=wrap;html=1;fillColor=#f8cecc;strokeColor=#b85450;" parent="JOVcdw9nQPwqHA8ujt-6-116" vertex="1">
          <mxGeometry x="40" y="20" width="10" height="40" as="geometry" />
        </mxCell>
        <mxCell id="JOVcdw9nQPwqHA8ujt-6-122" value="" style="rounded=0;whiteSpace=wrap;html=1;fillColor=#f8cecc;strokeColor=#b85450;" parent="JOVcdw9nQPwqHA8ujt-6-116" vertex="1">
          <mxGeometry x="50" y="10" width="10" height="60" as="geometry" />
        </mxCell>
        <mxCell id="JOVcdw9nQPwqHA8ujt-6-123" value="" style="rounded=0;whiteSpace=wrap;html=1;fillColor=#f8cecc;strokeColor=#b85450;" parent="JOVcdw9nQPwqHA8ujt-6-116" vertex="1">
          <mxGeometry x="60" width="10" height="80" as="geometry" />
        </mxCell>
        <mxCell id="JOVcdw9nQPwqHA8ujt-6-124" style="edgeStyle=orthogonalEdgeStyle;rounded=0;orthogonalLoop=1;jettySize=auto;html=1;entryX=0;entryY=0.5;entryDx=0;entryDy=0;" parent="1" source="JOVcdw9nQPwqHA8ujt-6-125" target="JOVcdw9nQPwqHA8ujt-6-113" edge="1">
          <mxGeometry relative="1" as="geometry" />
        </mxCell>
        <mxCell id="JOVcdw9nQPwqHA8ujt-6-125" value="$$\dots$$" style="rounded=0;whiteSpace=wrap;html=1;strokeColor=none;" parent="1" vertex="1">
          <mxGeometry x="2080" y="1395" width="40" height="30" as="geometry" />
        </mxCell>
        <mxCell id="JOVcdw9nQPwqHA8ujt-6-126" value="$$\hat{\mathbf{x}}^{(t)}_{0}$$" style="ellipse;whiteSpace=wrap;html=1;aspect=fixed;fontSize=16;fillColor=default;" parent="1" vertex="1">
          <mxGeometry x="2600" y="1410" width="40" height="40" as="geometry" />
        </mxCell>
        <mxCell id="JOVcdw9nQPwqHA8ujt-6-127" style="edgeStyle=orthogonalEdgeStyle;rounded=0;orthogonalLoop=1;jettySize=auto;html=1;entryX=0;entryY=0.5;entryDx=0;entryDy=0;" parent="1" source="JOVcdw9nQPwqHA8ujt-6-123" target="JOVcdw9nQPwqHA8ujt-6-126" edge="1">
          <mxGeometry relative="1" as="geometry" />
        </mxCell>
        <mxCell id="JOVcdw9nQPwqHA8ujt-6-128" style="edgeStyle=orthogonalEdgeStyle;rounded=0;orthogonalLoop=1;jettySize=auto;html=1;entryX=1;entryY=0.5;entryDx=0;entryDy=0;exitX=0.5;exitY=1;exitDx=0;exitDy=0;fillColor=#dae8fc;strokeColor=#6c8ebf;strokeWidth=2;" parent="1" source="JOVcdw9nQPwqHA8ujt-6-126" target="JOVcdw9nQPwqHA8ujt-6-134" edge="1">
          <mxGeometry relative="1" as="geometry">
            <mxPoint x="2630" y="1490" as="sourcePoint" />
            <Array as="points">
              <mxPoint x="2620" y="1470" />
            </Array>
          </mxGeometry>
        </mxCell>
        <mxCell id="JOVcdw9nQPwqHA8ujt-6-129" value="" style="edgeStyle=orthogonalEdgeStyle;rounded=0;orthogonalLoop=1;jettySize=auto;html=1;entryX=1;entryY=0.5;entryDx=0;entryDy=0;fillColor=#dae8fc;strokeColor=#6c8ebf;strokeWidth=2;" parent="1" source="JOVcdw9nQPwqHA8ujt-6-134" target="JOVcdw9nQPwqHA8ujt-6-131" edge="1">
          <mxGeometry relative="1" as="geometry">
            <mxPoint x="2609" y="1370" as="sourcePoint" />
            <mxPoint x="2408" y="1370" as="targetPoint" />
          </mxGeometry>
        </mxCell>
        <mxCell id="JOVcdw9nQPwqHA8ujt-6-130" value="$$\cdots$$" style="edgeStyle=orthogonalEdgeStyle;rounded=0;orthogonalLoop=1;jettySize=auto;html=1;entryX=1;entryY=0.5;entryDx=0;entryDy=0;fontSize=14;fillColor=#dae8fc;strokeColor=#6c8ebf;strokeWidth=2;" parent="1" source="JOVcdw9nQPwqHA8ujt-6-131" target="JOVcdw9nQPwqHA8ujt-6-136" edge="1">
          <mxGeometry relative="1" as="geometry" />
        </mxCell>
        <mxCell id="JOVcdw9nQPwqHA8ujt-6-131" value="$$\hat{\mathbf{x}}_{1}$$" style="ellipse;whiteSpace=wrap;html=1;aspect=fixed;fontSize=18;fillColor=default;" parent="1" vertex="1">
          <mxGeometry x="2514" y="1450" width="40" height="40" as="geometry" />
        </mxCell>
        <mxCell id="JOVcdw9nQPwqHA8ujt-6-132" style="edgeStyle=orthogonalEdgeStyle;rounded=0;orthogonalLoop=1;jettySize=auto;html=1;entryX=0.5;entryY=1;entryDx=0;entryDy=0;" parent="1" source="JOVcdw9nQPwqHA8ujt-6-133" target="JOVcdw9nQPwqHA8ujt-6-134" edge="1">
          <mxGeometry relative="1" as="geometry" />
        </mxCell>
        <mxCell id="JOVcdw9nQPwqHA8ujt-6-133" value="$$\epsilon_{1}$$" style="text;html=1;align=center;verticalAlign=middle;whiteSpace=wrap;rounded=0;fontSize=18;rotation=0;spacingTop=0;spacingRight=0;" parent="1" vertex="1">
          <mxGeometry x="2569" y="1500" width="20" height="20" as="geometry" />
        </mxCell>
        <mxCell id="JOVcdw9nQPwqHA8ujt-6-134" value="+" style="ellipse;whiteSpace=wrap;html=1;spacingTop=-2;" parent="1" vertex="1">
          <mxGeometry x="2569" y="1460" width="20" height="20" as="geometry" />
        </mxCell>
        <mxCell id="JOVcdw9nQPwqHA8ujt-6-135" style="edgeStyle=orthogonalEdgeStyle;rounded=0;orthogonalLoop=1;jettySize=auto;html=1;entryX=0;entryY=0.5;entryDx=0;entryDy=0;exitX=0.5;exitY=1;exitDx=0;exitDy=0;" parent="1" source="JOVcdw9nQPwqHA8ujt-6-136" target="JOVcdw9nQPwqHA8ujt-6-143" edge="1">
          <mxGeometry relative="1" as="geometry">
            <Array as="points">
              <mxPoint x="2319" y="1520" />
            </Array>
          </mxGeometry>
        </mxCell>
        <mxCell id="JOVcdw9nQPwqHA8ujt-6-136" value="$$\hat{\mathbf{x}}_{t-1}$$" style="ellipse;whiteSpace=wrap;html=1;aspect=fixed;fontSize=14;fillColor=default;" parent="1" vertex="1">
          <mxGeometry x="2299" y="1450" width="40" height="40" as="geometry" />
        </mxCell>
        <mxCell id="JOVcdw9nQPwqHA8ujt-6-137" value="" style="edgeStyle=orthogonalEdgeStyle;rounded=0;orthogonalLoop=1;jettySize=auto;html=1;entryX=1;entryY=0.5;entryDx=0;entryDy=0;strokeWidth=2;fillColor=#dae8fc;strokeColor=#6c8ebf;" parent="1" source="JOVcdw9nQPwqHA8ujt-6-141" target="JOVcdw9nQPwqHA8ujt-6-138" edge="1">
          <mxGeometry relative="1" as="geometry">
            <mxPoint x="2500" y="1270" as="sourcePoint" />
            <mxPoint x="2299" y="1270" as="targetPoint" />
          </mxGeometry>
        </mxCell>
        <mxCell id="JOVcdw9nQPwqHA8ujt-6-138" value="$$\hat{\mathbf{x}}_{2}$$" style="ellipse;whiteSpace=wrap;html=1;aspect=fixed;fontSize=18;fillColor=default;" parent="1" vertex="1">
          <mxGeometry x="2410" y="1350" width="40" height="40" as="geometry" />
        </mxCell>
        <mxCell id="JOVcdw9nQPwqHA8ujt-6-139" style="edgeStyle=orthogonalEdgeStyle;rounded=0;orthogonalLoop=1;jettySize=auto;html=1;entryX=0.5;entryY=1;entryDx=0;entryDy=0;" parent="1" source="JOVcdw9nQPwqHA8ujt-6-140" target="JOVcdw9nQPwqHA8ujt-6-141" edge="1">
          <mxGeometry relative="1" as="geometry" />
        </mxCell>
        <mxCell id="JOVcdw9nQPwqHA8ujt-6-140" value="$$\epsilon_{2}$$" style="text;html=1;align=center;verticalAlign=middle;whiteSpace=wrap;rounded=0;fontSize=18;rotation=0;spacingTop=0;spacingRight=0;" parent="1" vertex="1">
          <mxGeometry x="2470" y="1400" width="20" height="20" as="geometry" />
        </mxCell>
        <mxCell id="JOVcdw9nQPwqHA8ujt-6-141" value="+" style="ellipse;whiteSpace=wrap;html=1;spacingTop=-2;" parent="1" vertex="1">
          <mxGeometry x="2470" y="1360" width="20" height="20" as="geometry" />
        </mxCell>
        <mxCell id="JOVcdw9nQPwqHA8ujt-6-142" style="edgeStyle=orthogonalEdgeStyle;rounded=0;orthogonalLoop=1;jettySize=auto;html=1;entryX=0;entryY=0.5;entryDx=0;entryDy=0;" parent="1" source="JOVcdw9nQPwqHA8ujt-6-143" target="JOVcdw9nQPwqHA8ujt-6-145" edge="1">
          <mxGeometry relative="1" as="geometry" />
        </mxCell>
        <mxCell id="JOVcdw9nQPwqHA8ujt-6-143" value="$$\dots$$" style="rounded=0;whiteSpace=wrap;html=1;strokeColor=none;" parent="1" vertex="1">
          <mxGeometry x="2349" y="1505" width="40" height="30" as="geometry" />
        </mxCell>
        <mxCell id="JOVcdw9nQPwqHA8ujt-6-144" style="edgeStyle=orthogonalEdgeStyle;rounded=0;orthogonalLoop=1;jettySize=auto;html=1;entryX=0;entryY=0.75;entryDx=0;entryDy=0;" parent="1" source="JOVcdw9nQPwqHA8ujt-6-145" target="JOVcdw9nQPwqHA8ujt-6-149" edge="1">
          <mxGeometry relative="1" as="geometry" />
        </mxCell>
        <mxCell id="JOVcdw9nQPwqHA8ujt-6-145" value="$$\hat{\mathbf{x}}_{1}$$" style="ellipse;whiteSpace=wrap;html=1;aspect=fixed;fontSize=18;fillColor=default;" parent="1" vertex="1">
          <mxGeometry x="2429" y="1560" width="40" height="40" as="geometry" />
        </mxCell>
        <mxCell id="JOVcdw9nQPwqHA8ujt-6-146" style="edgeStyle=orthogonalEdgeStyle;rounded=0;orthogonalLoop=1;jettySize=auto;html=1;entryX=0;entryY=0.25;entryDx=0;entryDy=0;" parent="1" source="JOVcdw9nQPwqHA8ujt-6-147" target="JOVcdw9nQPwqHA8ujt-6-149" edge="1">
          <mxGeometry relative="1" as="geometry" />
        </mxCell>
        <mxCell id="JOVcdw9nQPwqHA8ujt-6-147" value="$$1$$" style="text;html=1;align=center;verticalAlign=middle;whiteSpace=wrap;rounded=0;fontSize=14;" parent="1" vertex="1">
          <mxGeometry x="2439" y="1525" width="20" height="30" as="geometry" />
        </mxCell>
        <mxCell id="JOVcdw9nQPwqHA8ujt-6-148" value="&#xa;" style="group" parent="1" vertex="1" connectable="0">
          <mxGeometry x="2489" y="1520" width="70" height="80" as="geometry" />
        </mxCell>
        <mxCell id="JOVcdw9nQPwqHA8ujt-6-149" value="" style="rounded=0;whiteSpace=wrap;html=1;fillColor=#f8cecc;strokeColor=#b85450;" parent="JOVcdw9nQPwqHA8ujt-6-148" vertex="1">
          <mxGeometry width="10" height="80" as="geometry" />
        </mxCell>
        <mxCell id="JOVcdw9nQPwqHA8ujt-6-150" value="" style="rounded=0;whiteSpace=wrap;html=1;fillColor=#f8cecc;strokeColor=#b85450;" parent="JOVcdw9nQPwqHA8ujt-6-148" vertex="1">
          <mxGeometry x="10" y="10" width="10" height="60" as="geometry" />
        </mxCell>
        <mxCell id="JOVcdw9nQPwqHA8ujt-6-151" value="" style="rounded=0;whiteSpace=wrap;html=1;fillColor=#f8cecc;strokeColor=#b85450;" parent="JOVcdw9nQPwqHA8ujt-6-148" vertex="1">
          <mxGeometry x="20" y="20" width="10" height="40" as="geometry" />
        </mxCell>
        <mxCell id="JOVcdw9nQPwqHA8ujt-6-152" value="" style="rounded=0;whiteSpace=wrap;html=1;fillColor=#f8cecc;strokeColor=#b85450;" parent="JOVcdw9nQPwqHA8ujt-6-148" vertex="1">
          <mxGeometry x="30" y="30" width="10" height="20" as="geometry" />
        </mxCell>
        <mxCell id="JOVcdw9nQPwqHA8ujt-6-153" value="" style="rounded=0;whiteSpace=wrap;html=1;fillColor=#f8cecc;strokeColor=#b85450;" parent="JOVcdw9nQPwqHA8ujt-6-148" vertex="1">
          <mxGeometry x="40" y="20" width="10" height="40" as="geometry" />
        </mxCell>
        <mxCell id="JOVcdw9nQPwqHA8ujt-6-154" value="" style="rounded=0;whiteSpace=wrap;html=1;fillColor=#f8cecc;strokeColor=#b85450;" parent="JOVcdw9nQPwqHA8ujt-6-148" vertex="1">
          <mxGeometry x="50" y="10" width="10" height="60" as="geometry" />
        </mxCell>
        <mxCell id="JOVcdw9nQPwqHA8ujt-6-155" value="" style="rounded=0;whiteSpace=wrap;html=1;fillColor=#f8cecc;strokeColor=#b85450;" parent="JOVcdw9nQPwqHA8ujt-6-148" vertex="1">
          <mxGeometry x="60" width="10" height="80" as="geometry" />
        </mxCell>
        <mxCell id="JOVcdw9nQPwqHA8ujt-6-156" value="$$\hat{\mathbf{x}}_{0}$$" style="ellipse;whiteSpace=wrap;html=1;aspect=fixed;fontSize=16;fillColor=default;" parent="1" vertex="1">
          <mxGeometry x="2599" y="1540" width="40" height="40" as="geometry" />
        </mxCell>
        <mxCell id="JOVcdw9nQPwqHA8ujt-6-157" style="edgeStyle=orthogonalEdgeStyle;rounded=0;orthogonalLoop=1;jettySize=auto;html=1;entryX=0;entryY=0.5;entryDx=0;entryDy=0;" parent="1" source="JOVcdw9nQPwqHA8ujt-6-155" target="JOVcdw9nQPwqHA8ujt-6-156" edge="1">
          <mxGeometry relative="1" as="geometry" />
        </mxCell>
        <mxCell id="JOVcdw9nQPwqHA8ujt-6-158" value="$$f_{\theta}$$" style="text;html=1;align=center;verticalAlign=middle;whiteSpace=wrap;rounded=0;fontSize=14;" parent="1" vertex="1">
          <mxGeometry x="2515" y="1580" width="20" height="20" as="geometry" />
        </mxCell>
        <mxCell id="JOVcdw9nQPwqHA8ujt-6-159" value="$$f_{\theta}$$" style="text;html=1;align=center;verticalAlign=middle;whiteSpace=wrap;rounded=0;fontSize=14;" parent="1" vertex="1">
          <mxGeometry x="1985" y="1360" width="20" height="20" as="geometry" />
        </mxCell>
        <mxCell id="JOVcdw9nQPwqHA8ujt-6-160" value="$$f_{\theta}$$" style="text;html=1;align=center;verticalAlign=middle;whiteSpace=wrap;rounded=0;fontSize=14;" parent="1" vertex="1">
          <mxGeometry x="2245" y="1460" width="20" height="20" as="geometry" />
        </mxCell>
        <mxCell id="JOVcdw9nQPwqHA8ujt-6-161" value="" style="group" parent="1" vertex="1" connectable="0">
          <mxGeometry x="2280" y="800" width="70" height="80" as="geometry" />
        </mxCell>
        <mxCell id="JOVcdw9nQPwqHA8ujt-6-162" value="" style="rounded=0;whiteSpace=wrap;html=1;fillColor=#f8cecc;strokeColor=#b85450;" parent="JOVcdw9nQPwqHA8ujt-6-161" vertex="1">
          <mxGeometry width="10" height="80" as="geometry" />
        </mxCell>
        <mxCell id="JOVcdw9nQPwqHA8ujt-6-163" value="" style="rounded=0;whiteSpace=wrap;html=1;fillColor=#f8cecc;strokeColor=#b85450;" parent="JOVcdw9nQPwqHA8ujt-6-161" vertex="1">
          <mxGeometry x="10" y="10" width="10" height="60" as="geometry" />
        </mxCell>
        <mxCell id="JOVcdw9nQPwqHA8ujt-6-164" value="" style="rounded=0;whiteSpace=wrap;html=1;fillColor=#f8cecc;strokeColor=#b85450;" parent="JOVcdw9nQPwqHA8ujt-6-161" vertex="1">
          <mxGeometry x="20" y="20" width="10" height="40" as="geometry" />
        </mxCell>
        <mxCell id="JOVcdw9nQPwqHA8ujt-6-165" value="" style="rounded=0;whiteSpace=wrap;html=1;fillColor=#f8cecc;strokeColor=#b85450;" parent="JOVcdw9nQPwqHA8ujt-6-161" vertex="1">
          <mxGeometry x="30" y="30" width="10" height="20" as="geometry" />
        </mxCell>
        <mxCell id="JOVcdw9nQPwqHA8ujt-6-166" value="" style="rounded=0;whiteSpace=wrap;html=1;fillColor=#f8cecc;strokeColor=#b85450;" parent="JOVcdw9nQPwqHA8ujt-6-161" vertex="1">
          <mxGeometry x="40" y="20" width="10" height="40" as="geometry" />
        </mxCell>
        <mxCell id="JOVcdw9nQPwqHA8ujt-6-167" value="" style="rounded=0;whiteSpace=wrap;html=1;fillColor=#f8cecc;strokeColor=#b85450;" parent="JOVcdw9nQPwqHA8ujt-6-161" vertex="1">
          <mxGeometry x="50" y="10" width="10" height="60" as="geometry" />
        </mxCell>
        <mxCell id="JOVcdw9nQPwqHA8ujt-6-168" value="" style="rounded=0;whiteSpace=wrap;html=1;fillColor=#f8cecc;strokeColor=#b85450;" parent="JOVcdw9nQPwqHA8ujt-6-161" vertex="1">
          <mxGeometry x="60" width="10" height="80" as="geometry" />
        </mxCell>
        <mxCell id="JOVcdw9nQPwqHA8ujt-6-171" style="edgeStyle=orthogonalEdgeStyle;rounded=0;orthogonalLoop=1;jettySize=auto;html=1;entryX=1;entryY=0.75;entryDx=0;entryDy=0;exitX=0;exitY=0.5;exitDx=0;exitDy=0;" parent="1" source="JOVcdw9nQPwqHA8ujt-6-172" target="JOVcdw9nQPwqHA8ujt-6-168" edge="1">
          <mxGeometry relative="1" as="geometry">
            <Array as="points" />
            <mxPoint x="2379.24" y="900.5" as="sourcePoint" />
          </mxGeometry>
        </mxCell>
        <mxCell id="JOVcdw9nQPwqHA8ujt-6-172" value="$$\hat{\mathbf{x}}_{T}$$" style="ellipse;whiteSpace=wrap;html=1;aspect=fixed;fontSize=18;fillColor=default;" parent="1" vertex="1">
          <mxGeometry x="2400" y="840" width="40" height="40" as="geometry" />
        </mxCell>
        <mxCell id="JOVcdw9nQPwqHA8ujt-6-173" value="$$f_{\theta} (\mathbf{x}_{T}, T)$$" style="text;html=1;align=center;verticalAlign=middle;whiteSpace=wrap;rounded=0;fontSize=14;" parent="1" vertex="1">
          <mxGeometry x="2270" y="880" width="90" height="30" as="geometry" />
        </mxCell>
        <mxCell id="JOVcdw9nQPwqHA8ujt-6-174" style="edgeStyle=orthogonalEdgeStyle;rounded=0;orthogonalLoop=1;jettySize=auto;html=1;entryX=1;entryY=0.25;entryDx=0;entryDy=0;" parent="1" source="JOVcdw9nQPwqHA8ujt-6-175" target="JOVcdw9nQPwqHA8ujt-6-168" edge="1">
          <mxGeometry relative="1" as="geometry" />
        </mxCell>
        <mxCell id="JOVcdw9nQPwqHA8ujt-6-175" value="$$T$$" style="text;html=1;align=center;verticalAlign=middle;whiteSpace=wrap;rounded=0;fontSize=14;" parent="1" vertex="1">
          <mxGeometry x="2370" y="805" width="20" height="30" as="geometry" />
        </mxCell>
        <mxCell id="xN7vpNgqIkpbUuNeTXVm-12" style="edgeStyle=orthogonalEdgeStyle;rounded=0;orthogonalLoop=1;jettySize=auto;html=1;entryX=1;entryY=0.5;entryDx=0;entryDy=0;fillColor=#f8cecc;strokeColor=#b85450;strokeWidth=2;" parent="1" target="JOVcdw9nQPwqHA8ujt-6-216" edge="1">
          <mxGeometry relative="1" as="geometry">
            <mxPoint x="2220" y="900" as="sourcePoint" />
            <Array as="points">
              <mxPoint x="2220" y="911" />
            </Array>
          </mxGeometry>
        </mxCell>
        <mxCell id="JOVcdw9nQPwqHA8ujt-6-179" value="$$\hat{\mathbf{x}}_{T-1}$$" style="ellipse;whiteSpace=wrap;html=1;aspect=fixed;fontSize=14;fillColor=default;" parent="1" vertex="1">
          <mxGeometry x="2199.62" y="859.5" width="40" height="40" as="geometry" />
        </mxCell>
        <mxCell id="JOVcdw9nQPwqHA8ujt-6-187" value="$$\hat{\mathbf{x}}^{(T)}_{0}$$" style="ellipse;whiteSpace=wrap;html=1;aspect=fixed;fontSize=16;fillColor=default;" parent="1" vertex="1">
          <mxGeometry x="1880" y="820" width="40" height="40" as="geometry" />
        </mxCell>
        <mxCell id="JOVcdw9nQPwqHA8ujt-6-188" style="edgeStyle=orthogonalEdgeStyle;rounded=0;orthogonalLoop=1;jettySize=auto;html=1;entryX=1;entryY=0.5;entryDx=0;entryDy=0;fillColor=#f8cecc;strokeColor=#b85450;strokeWidth=2;" parent="1" source="JOVcdw9nQPwqHA8ujt-6-162" target="JOVcdw9nQPwqHA8ujt-6-187" edge="1">
          <mxGeometry relative="1" as="geometry" />
        </mxCell>
        <mxCell id="JOVcdw9nQPwqHA8ujt-6-196" style="edgeStyle=orthogonalEdgeStyle;rounded=0;orthogonalLoop=1;jettySize=auto;html=1;entryX=0;entryY=0.5;entryDx=0;entryDy=0;fillColor=#dae8fc;strokeColor=#6c8ebf;strokeWidth=2;" parent="1" source="JOVcdw9nQPwqHA8ujt-6-190" target="JOVcdw9nQPwqHA8ujt-6-179" edge="1">
          <mxGeometry relative="1" as="geometry">
            <mxPoint x="2154.87" y="880" as="targetPoint" />
            <Array as="points" />
          </mxGeometry>
        </mxCell>
        <mxCell id="JOVcdw9nQPwqHA8ujt-6-190" value="$$\hat{\mathbf{x}}_{1}$$" style="ellipse;whiteSpace=wrap;html=1;aspect=fixed;fontSize=18;fillColor=default;" parent="1" vertex="1">
          <mxGeometry x="1964.87" y="860" width="40" height="40" as="geometry" />
        </mxCell>
        <mxCell id="JOVcdw9nQPwqHA8ujt-6-193" value="" style="edgeStyle=orthogonalEdgeStyle;rounded=0;orthogonalLoop=1;jettySize=auto;html=1;entryX=0;entryY=0.5;entryDx=0;entryDy=0;fillColor=#dae8fc;strokeColor=#6c8ebf;strokeWidth=2;" parent="1" source="JOVcdw9nQPwqHA8ujt-6-187" target="JOVcdw9nQPwqHA8ujt-6-190" edge="1">
          <mxGeometry relative="1" as="geometry">
            <mxPoint x="1900" y="860" as="sourcePoint" />
            <mxPoint x="1960" y="900" as="targetPoint" />
            <Array as="points">
              <mxPoint x="1900" y="880" />
            </Array>
          </mxGeometry>
        </mxCell>
        <mxCell id="JOVcdw9nQPwqHA8ujt-6-192" value="+" style="ellipse;whiteSpace=wrap;html=1;spacingTop=-2;" parent="1" vertex="1">
          <mxGeometry x="1924.87" y="870" width="20" height="20" as="geometry" />
        </mxCell>
        <mxCell id="JOVcdw9nQPwqHA8ujt-6-194" value="$$\epsilon_{1}$$" style="text;html=1;align=center;verticalAlign=middle;whiteSpace=wrap;rounded=0;fontSize=18;rotation=0;spacingTop=0;spacingRight=0;" parent="1" vertex="1">
          <mxGeometry x="1925" y="840" width="20" height="30" as="geometry" />
        </mxCell>
        <mxCell id="JOVcdw9nQPwqHA8ujt-6-189" value="$${1} \rightarrow {T-1}$$" style="rounded=0;whiteSpace=wrap;html=1;spacingTop=0;strokeColor=default;" parent="1" vertex="1">
          <mxGeometry x="2079.87" y="865" width="80" height="29" as="geometry" />
        </mxCell>
        <mxCell id="JOVcdw9nQPwqHA8ujt-6-200" value="" style="group" parent="1" vertex="1" connectable="0">
          <mxGeometry x="1949.8700000000001" y="960" width="70" height="80" as="geometry" />
        </mxCell>
        <mxCell id="JOVcdw9nQPwqHA8ujt-6-201" value="" style="rounded=0;whiteSpace=wrap;html=1;fillColor=#f8cecc;strokeColor=#b85450;" parent="JOVcdw9nQPwqHA8ujt-6-200" vertex="1">
          <mxGeometry width="10" height="80" as="geometry" />
        </mxCell>
        <mxCell id="JOVcdw9nQPwqHA8ujt-6-202" value="" style="rounded=0;whiteSpace=wrap;html=1;fillColor=#f8cecc;strokeColor=#b85450;" parent="JOVcdw9nQPwqHA8ujt-6-200" vertex="1">
          <mxGeometry x="10" y="10" width="10" height="60" as="geometry" />
        </mxCell>
        <mxCell id="JOVcdw9nQPwqHA8ujt-6-203" value="" style="rounded=0;whiteSpace=wrap;html=1;fillColor=#f8cecc;strokeColor=#b85450;" parent="JOVcdw9nQPwqHA8ujt-6-200" vertex="1">
          <mxGeometry x="20" y="20" width="10" height="40" as="geometry" />
        </mxCell>
        <mxCell id="JOVcdw9nQPwqHA8ujt-6-204" value="" style="rounded=0;whiteSpace=wrap;html=1;fillColor=#f8cecc;strokeColor=#b85450;" parent="JOVcdw9nQPwqHA8ujt-6-200" vertex="1">
          <mxGeometry x="30" y="30" width="10" height="20" as="geometry" />
        </mxCell>
        <mxCell id="JOVcdw9nQPwqHA8ujt-6-205" value="" style="rounded=0;whiteSpace=wrap;html=1;fillColor=#f8cecc;strokeColor=#b85450;" parent="JOVcdw9nQPwqHA8ujt-6-200" vertex="1">
          <mxGeometry x="40" y="20" width="10" height="40" as="geometry" />
        </mxCell>
        <mxCell id="JOVcdw9nQPwqHA8ujt-6-206" value="" style="rounded=0;whiteSpace=wrap;html=1;fillColor=#f8cecc;strokeColor=#b85450;" parent="JOVcdw9nQPwqHA8ujt-6-200" vertex="1">
          <mxGeometry x="50" y="10" width="10" height="60" as="geometry" />
        </mxCell>
        <mxCell id="JOVcdw9nQPwqHA8ujt-6-207" value="" style="rounded=0;whiteSpace=wrap;html=1;fillColor=#f8cecc;strokeColor=#b85450;" parent="JOVcdw9nQPwqHA8ujt-6-200" vertex="1">
          <mxGeometry x="60" width="10" height="80" as="geometry" />
        </mxCell>
        <mxCell id="JOVcdw9nQPwqHA8ujt-6-210" value="$$f_{\theta} (\mathbf{x}_{1}, t=1)$$" style="text;html=1;align=center;verticalAlign=middle;whiteSpace=wrap;rounded=0;fontSize=14;" parent="1" vertex="1">
          <mxGeometry x="1939.8700000000001" y="1040" width="90" height="20" as="geometry" />
        </mxCell>
        <mxCell id="JOVcdw9nQPwqHA8ujt-6-211" style="edgeStyle=orthogonalEdgeStyle;rounded=0;orthogonalLoop=1;jettySize=auto;html=1;entryX=1;entryY=0.25;entryDx=0;entryDy=0;" parent="1" source="JOVcdw9nQPwqHA8ujt-6-212" target="JOVcdw9nQPwqHA8ujt-6-207" edge="1">
          <mxGeometry relative="1" as="geometry" />
        </mxCell>
        <mxCell id="JOVcdw9nQPwqHA8ujt-6-212" value="$$1$$" style="text;html=1;align=center;verticalAlign=middle;whiteSpace=wrap;rounded=0;fontSize=14;" parent="1" vertex="1">
          <mxGeometry x="2039.8700000000001" y="965" width="20" height="30" as="geometry" />
        </mxCell>
        <mxCell id="JOVcdw9nQPwqHA8ujt-6-213" value="$$\hat{\mathbf{x}}_{0}$$" style="ellipse;whiteSpace=wrap;html=1;aspect=fixed;fontSize=16;fillColor=default;" parent="1" vertex="1">
          <mxGeometry x="1880.38" y="980" width="40" height="40" as="geometry" />
        </mxCell>
        <mxCell id="JOVcdw9nQPwqHA8ujt-6-214" style="edgeStyle=orthogonalEdgeStyle;rounded=0;orthogonalLoop=1;jettySize=auto;html=1;entryX=1;entryY=0.5;entryDx=0;entryDy=0;fillColor=#f8cecc;strokeColor=#b85450;strokeWidth=2;" parent="1" source="JOVcdw9nQPwqHA8ujt-6-201" target="JOVcdw9nQPwqHA8ujt-6-213" edge="1">
          <mxGeometry relative="1" as="geometry" />
        </mxCell>
        <mxCell id="xN7vpNgqIkpbUuNeTXVm-4" style="edgeStyle=orthogonalEdgeStyle;rounded=0;orthogonalLoop=1;jettySize=auto;html=1;entryX=1;entryY=0.5;entryDx=0;entryDy=0;fillColor=#f8cecc;strokeColor=#b85450;strokeWidth=2;" parent="1" source="JOVcdw9nQPwqHA8ujt-6-216" target="xN7vpNgqIkpbUuNeTXVm-2" edge="1">
          <mxGeometry relative="1" as="geometry">
            <mxPoint x="1930.38" y="925.5" as="targetPoint" />
            <Array as="points">
              <mxPoint x="2035" y="911" />
              <mxPoint x="1920" y="911" />
            </Array>
          </mxGeometry>
        </mxCell>
        <mxCell id="JOVcdw9nQPwqHA8ujt-6-216" value="&lt;span style=&quot;font-size: 14px;&quot;&gt;$$...$$&lt;/span&gt;" style="rounded=0;whiteSpace=wrap;html=1;spacingTop=0;strokeColor=none;" parent="1" vertex="1">
          <mxGeometry x="2120.38" y="896" width="40" height="29" as="geometry" />
        </mxCell>
        <mxCell id="xN7vpNgqIkpbUuNeTXVm-5" style="edgeStyle=orthogonalEdgeStyle;rounded=0;orthogonalLoop=1;jettySize=auto;html=1;entryX=0;entryY=0.5;entryDx=0;entryDy=0;fillColor=#dae8fc;strokeColor=#6c8ebf;strokeWidth=2;" parent="1" source="xN7vpNgqIkpbUuNeTXVm-2" target="xN7vpNgqIkpbUuNeTXVm-3" edge="1">
          <mxGeometry relative="1" as="geometry">
            <Array as="points">
              <mxPoint x="1900" y="951" />
            </Array>
          </mxGeometry>
        </mxCell>
        <mxCell id="xN7vpNgqIkpbUuNeTXVm-2" value="$$\hat{\mathbf{x}}^{(1)}_{0}$$" style="ellipse;whiteSpace=wrap;html=1;aspect=fixed;fontSize=16;fillColor=default;" parent="1" vertex="1">
          <mxGeometry x="1880.38" y="891" width="40" height="40" as="geometry" />
        </mxCell>
        <mxCell id="xN7vpNgqIkpbUuNeTXVm-10" style="edgeStyle=orthogonalEdgeStyle;rounded=0;orthogonalLoop=1;jettySize=auto;html=1;exitX=0.5;exitY=1;exitDx=0;exitDy=0;entryX=1;entryY=0.75;entryDx=0;entryDy=0;" parent="1" source="xN7vpNgqIkpbUuNeTXVm-3" target="JOVcdw9nQPwqHA8ujt-6-207" edge="1">
          <mxGeometry relative="1" as="geometry">
            <mxPoint x="2020" y="1010" as="targetPoint" />
            <Array as="points">
              <mxPoint x="2060" y="1020" />
            </Array>
          </mxGeometry>
        </mxCell>
        <mxCell id="xN7vpNgqIkpbUuNeTXVm-3" value="$$\hat{\mathbf{x}}_{1}$$" style="ellipse;whiteSpace=wrap;html=1;aspect=fixed;fontSize=18;fillColor=default;" parent="1" vertex="1">
          <mxGeometry x="2039.8700000000001" y="931" width="40" height="40" as="geometry" />
        </mxCell>
        <mxCell id="xN7vpNgqIkpbUuNeTXVm-9" value="+" style="ellipse;whiteSpace=wrap;html=1;spacingTop=-2;" parent="1" vertex="1">
          <mxGeometry x="1919.8700000000001" y="940" width="20" height="20" as="geometry" />
        </mxCell>
        <mxCell id="xN7vpNgqIkpbUuNeTXVm-11" value="$$\epsilon_{1}$$" style="text;html=1;align=center;verticalAlign=middle;whiteSpace=wrap;rounded=0;fontSize=18;rotation=0;spacingTop=0;spacingRight=0;" parent="1" vertex="1">
          <mxGeometry x="1919.8700000000001" y="918" width="20" height="20" as="geometry" />
        </mxCell>
        <mxCell id="xN7vpNgqIkpbUuNeTXVm-15" value="+" style="ellipse;whiteSpace=wrap;html=1;spacingTop=-2;" parent="1" vertex="1">
          <mxGeometry x="2014.87" y="870.5" width="20" height="20" as="geometry" />
        </mxCell>
        <mxCell id="xN7vpNgqIkpbUuNeTXVm-16" value="$$\epsilon_{2}$$" style="text;html=1;align=center;verticalAlign=middle;whiteSpace=wrap;rounded=0;fontSize=18;rotation=0;spacingTop=0;spacingRight=0;" parent="1" vertex="1">
          <mxGeometry x="2014.87" y="840" width="20" height="30" as="geometry" />
        </mxCell>
        <mxCell id="xN7vpNgqIkpbUuNeTXVm-17" value="" style="group" parent="1" vertex="1" connectable="0">
          <mxGeometry x="2000" y="590" width="70" height="80" as="geometry" />
        </mxCell>
        <mxCell id="xN7vpNgqIkpbUuNeTXVm-18" value="" style="rounded=0;whiteSpace=wrap;html=1;fillColor=#f8cecc;strokeColor=#b85450;" parent="xN7vpNgqIkpbUuNeTXVm-17" vertex="1">
          <mxGeometry width="10" height="80" as="geometry" />
        </mxCell>
        <mxCell id="xN7vpNgqIkpbUuNeTXVm-19" value="" style="rounded=0;whiteSpace=wrap;html=1;fillColor=#f8cecc;strokeColor=#b85450;" parent="xN7vpNgqIkpbUuNeTXVm-17" vertex="1">
          <mxGeometry x="10" y="10" width="10" height="60" as="geometry" />
        </mxCell>
        <mxCell id="xN7vpNgqIkpbUuNeTXVm-20" value="" style="rounded=0;whiteSpace=wrap;html=1;fillColor=#f8cecc;strokeColor=#b85450;" parent="xN7vpNgqIkpbUuNeTXVm-17" vertex="1">
          <mxGeometry x="20" y="20" width="10" height="40" as="geometry" />
        </mxCell>
        <mxCell id="xN7vpNgqIkpbUuNeTXVm-21" value="" style="rounded=0;whiteSpace=wrap;html=1;fillColor=#f8cecc;strokeColor=#b85450;" parent="xN7vpNgqIkpbUuNeTXVm-17" vertex="1">
          <mxGeometry x="30" y="30" width="10" height="20" as="geometry" />
        </mxCell>
        <mxCell id="xN7vpNgqIkpbUuNeTXVm-22" value="" style="rounded=0;whiteSpace=wrap;html=1;fillColor=#f8cecc;strokeColor=#b85450;" parent="xN7vpNgqIkpbUuNeTXVm-17" vertex="1">
          <mxGeometry x="40" y="20" width="10" height="40" as="geometry" />
        </mxCell>
        <mxCell id="xN7vpNgqIkpbUuNeTXVm-23" value="" style="rounded=0;whiteSpace=wrap;html=1;fillColor=#f8cecc;strokeColor=#b85450;" parent="xN7vpNgqIkpbUuNeTXVm-17" vertex="1">
          <mxGeometry x="50" y="10" width="10" height="60" as="geometry" />
        </mxCell>
        <mxCell id="xN7vpNgqIkpbUuNeTXVm-24" value="" style="rounded=0;whiteSpace=wrap;html=1;fillColor=#f8cecc;strokeColor=#b85450;" parent="xN7vpNgqIkpbUuNeTXVm-17" vertex="1">
          <mxGeometry x="60" width="10" height="80" as="geometry" />
        </mxCell>
        <mxCell id="xN7vpNgqIkpbUuNeTXVm-25" style="edgeStyle=orthogonalEdgeStyle;rounded=0;orthogonalLoop=1;jettySize=auto;html=1;entryX=0.5;entryY=0;entryDx=0;entryDy=0;" parent="1" source="xN7vpNgqIkpbUuNeTXVm-26" target="xN7vpNgqIkpbUuNeTXVm-36" edge="1">
          <mxGeometry relative="1" as="geometry">
            <mxPoint x="1965" y="700" as="targetPoint" />
          </mxGeometry>
        </mxCell>
        <mxCell id="xN7vpNgqIkpbUuNeTXVm-26" value="$$\hat{\epsilon}_{1}$$" style="text;html=1;align=center;verticalAlign=middle;whiteSpace=wrap;rounded=0;fontSize=18;" parent="1" vertex="1">
          <mxGeometry x="1940" y="615" width="30" height="30" as="geometry" />
        </mxCell>
        <mxCell id="xN7vpNgqIkpbUuNeTXVm-27" style="edgeStyle=orthogonalEdgeStyle;rounded=0;orthogonalLoop=1;jettySize=auto;html=1;entryX=1;entryY=0.75;entryDx=0;entryDy=0;exitX=0.5;exitY=0;exitDx=0;exitDy=0;" parent="1" source="xN7vpNgqIkpbUuNeTXVm-28" target="xN7vpNgqIkpbUuNeTXVm-24" edge="1">
          <mxGeometry relative="1" as="geometry">
            <Array as="points">
              <mxPoint x="2100" y="650" />
            </Array>
            <mxPoint x="2100" y="690" as="sourcePoint" />
          </mxGeometry>
        </mxCell>
        <mxCell id="xN7vpNgqIkpbUuNeTXVm-29" value="$$f_{\theta} (\mathbf{x}_{1}, t=1)$$" style="text;html=1;align=center;verticalAlign=middle;whiteSpace=wrap;rounded=0;fontSize=14;" parent="1" vertex="1">
          <mxGeometry x="1990" y="669.5" width="90" height="20" as="geometry" />
        </mxCell>
        <mxCell id="xN7vpNgqIkpbUuNeTXVm-39" style="edgeStyle=orthogonalEdgeStyle;rounded=0;orthogonalLoop=1;jettySize=auto;html=1;entryX=1;entryY=0.25;entryDx=0;entryDy=0;" parent="1" source="xN7vpNgqIkpbUuNeTXVm-31" target="xN7vpNgqIkpbUuNeTXVm-24" edge="1">
          <mxGeometry relative="1" as="geometry">
            <Array as="points">
              <mxPoint x="2080" y="610" />
            </Array>
          </mxGeometry>
        </mxCell>
        <mxCell id="xN7vpNgqIkpbUuNeTXVm-31" value="$$1$$" style="text;html=1;align=center;verticalAlign=middle;whiteSpace=wrap;rounded=0;fontSize=14;" parent="1" vertex="1">
          <mxGeometry x="2100" y="594.5" width="20" height="30" as="geometry" />
        </mxCell>
        <mxCell id="xN7vpNgqIkpbUuNeTXVm-32" style="edgeStyle=orthogonalEdgeStyle;rounded=0;orthogonalLoop=1;jettySize=auto;html=1;" parent="1" source="xN7vpNgqIkpbUuNeTXVm-18" target="xN7vpNgqIkpbUuNeTXVm-26" edge="1">
          <mxGeometry relative="1" as="geometry" />
        </mxCell>
        <mxCell id="xN7vpNgqIkpbUuNeTXVm-33" value="" style="edgeStyle=orthogonalEdgeStyle;rounded=0;orthogonalLoop=1;jettySize=auto;html=1;fillColor=#f8cecc;strokeColor=#b85450;strokeWidth=2;" parent="1" source="cquxBugVdTG6TD16O6YO-131" target="xN7vpNgqIkpbUuNeTXVm-28" edge="1">
          <mxGeometry relative="1" as="geometry">
            <mxPoint x="1920" y="700.5" as="targetPoint" />
            <mxPoint x="2200" y="700.5" as="sourcePoint" />
            <Array as="points">
              <mxPoint x="2170" y="700.5" />
              <mxPoint x="2170" y="700.5" />
            </Array>
          </mxGeometry>
        </mxCell>
        <mxCell id="xN7vpNgqIkpbUuNeTXVm-28" value="$$\hat{\mathbf{x}}_{1}$$" style="ellipse;whiteSpace=wrap;html=1;aspect=fixed;fontSize=18;fillColor=default;" parent="1" vertex="1">
          <mxGeometry x="2080" y="680" width="40" height="40" as="geometry" />
        </mxCell>
        <mxCell id="cquxBugVdTG6TD16O6YO-128" value="&lt;span style=&quot;font-size: 14px;&quot;&gt;$$...$$&lt;/span&gt;" style="rounded=0;whiteSpace=wrap;html=1;spacingTop=-6;strokeColor=none;" parent="1" vertex="1">
          <mxGeometry x="2140" y="686.5" width="30" height="29" as="geometry" />
        </mxCell>
        <mxCell id="xN7vpNgqIkpbUuNeTXVm-36" value="-" style="ellipse;whiteSpace=wrap;html=1;spacingTop=-2;" parent="1" vertex="1">
          <mxGeometry x="1944.87" y="689.5" width="20" height="20" as="geometry" />
        </mxCell>
      </root>
    </mxGraphModel>
  </diagram>
</mxfile>
